<svg
          width="634"
          height="58"
          viewBox="0 0 634 58"
          fill="none"
          xmlns="http://www.w3.org/2000/svg"
        >
          <rect x="484" width="150" height="57" rx="10" fill="#EA6D27" />
          <path
            d="M526.511 26.7102C526.466 26.2519 526.271 25.8958 525.926 25.642C525.581 25.3883 525.114 25.2614 524.523 25.2614C524.121 25.2614 523.782 25.3182 523.506 25.4318C523.229 25.5417 523.017 25.6951 522.869 25.892C522.725 26.089 522.653 26.3125 522.653 26.5625C522.646 26.7708 522.689 26.9527 522.784 27.108C522.883 27.2633 523.017 27.3977 523.188 27.5114C523.358 27.6212 523.555 27.7178 523.778 27.8011C524.002 27.8807 524.241 27.9489 524.494 28.0057L525.54 28.2557C526.047 28.3693 526.513 28.5208 526.938 28.7102C527.362 28.8996 527.729 29.1326 528.04 29.4091C528.35 29.6856 528.591 30.0114 528.761 30.3864C528.936 30.7614 529.025 31.1913 529.028 31.6761C529.025 32.3883 528.843 33.0057 528.483 33.5284C528.127 34.0473 527.612 34.4508 526.938 34.7386C526.267 35.0227 525.458 35.1648 524.511 35.1648C523.572 35.1648 522.754 35.0208 522.057 34.733C521.364 34.4451 520.822 34.0189 520.432 33.4545C520.045 32.8864 519.843 32.1837 519.824 31.3466H522.205C522.231 31.7367 522.343 32.0625 522.54 32.3239C522.741 32.5814 523.008 32.7765 523.341 32.9091C523.678 33.0379 524.059 33.1023 524.483 33.1023C524.9 33.1023 525.261 33.0417 525.568 32.9205C525.879 32.7992 526.119 32.6307 526.29 32.4148C526.46 32.1989 526.545 31.9508 526.545 31.6705C526.545 31.4091 526.468 31.1894 526.312 31.0114C526.161 30.8333 525.938 30.6818 525.642 30.5568C525.35 30.4318 524.992 30.3182 524.568 30.2159L523.301 29.8977C522.32 29.6591 521.545 29.286 520.977 28.7784C520.409 28.2708 520.127 27.5871 520.131 26.7273C520.127 26.0227 520.314 25.4072 520.693 24.8807C521.076 24.3542 521.6 23.9432 522.267 23.6477C522.934 23.3523 523.691 23.2045 524.54 23.2045C525.403 23.2045 526.157 23.3523 526.801 23.6477C527.449 23.9432 527.953 24.3542 528.312 24.8807C528.672 25.4072 528.858 26.017 528.869 26.7102H526.511ZM536.234 31.2841V26.2727H538.655V35H536.331V33.4148H536.24C536.043 33.9261 535.715 34.3371 535.257 34.6477C534.803 34.9583 534.248 35.1136 533.592 35.1136C533.009 35.1136 532.496 34.9811 532.053 34.7159C531.609 34.4508 531.263 34.0739 531.013 33.5852C530.767 33.0966 530.642 32.5114 530.638 31.8295V26.2727H533.058V31.3977C533.062 31.9129 533.2 32.3201 533.473 32.6193C533.746 32.9186 534.111 33.0682 534.57 33.0682C534.861 33.0682 535.134 33.0019 535.388 32.8693C535.642 32.733 535.846 32.5322 536.001 32.267C536.161 32.0019 536.238 31.6742 536.234 31.2841ZM540.636 35V23.3636H543.057V27.7386H543.131C543.237 27.5038 543.39 27.2652 543.591 27.0227C543.795 26.7765 544.061 26.572 544.386 26.4091C544.716 26.2424 545.125 26.1591 545.614 26.1591C546.25 26.1591 546.837 26.3258 547.375 26.6591C547.913 26.9886 548.343 27.4867 548.665 28.1534C548.987 28.8163 549.148 29.6477 549.148 30.6477C549.148 31.6212 548.991 32.4432 548.676 33.1136C548.366 33.7803 547.941 34.286 547.403 34.6307C546.869 34.9716 546.271 35.142 545.608 35.142C545.138 35.142 544.739 35.0644 544.409 34.9091C544.083 34.7538 543.816 34.5587 543.608 34.3239C543.4 34.0852 543.241 33.8447 543.131 33.6023H543.023V35H540.636ZM543.006 30.6364C543.006 31.1553 543.078 31.608 543.222 31.9943C543.366 32.3807 543.574 32.6818 543.847 32.8977C544.119 33.1098 544.451 33.2159 544.841 33.2159C545.235 33.2159 545.568 33.108 545.841 32.892C546.114 32.6723 546.32 32.3693 546.46 31.983C546.604 31.5928 546.676 31.1439 546.676 30.6364C546.676 30.1326 546.606 29.6894 546.466 29.3068C546.326 28.9242 546.119 28.625 545.847 28.4091C545.574 28.1932 545.239 28.0852 544.841 28.0852C544.447 28.0852 544.114 28.1894 543.841 28.3977C543.572 28.6061 543.366 28.9015 543.222 29.2841C543.078 29.6667 543.006 30.1174 543.006 30.6364ZM558.024 28.7614L555.808 28.8977C555.77 28.7083 555.689 28.5379 555.564 28.3864C555.439 28.2311 555.274 28.108 555.07 28.017C554.869 27.9223 554.628 27.875 554.348 27.875C553.973 27.875 553.657 27.9545 553.399 28.1136C553.142 28.2689 553.013 28.4773 553.013 28.7386C553.013 28.947 553.096 29.1231 553.263 29.267C553.429 29.411 553.715 29.5265 554.121 29.6136L555.7 29.9318C556.549 30.1061 557.181 30.3864 557.598 30.7727C558.015 31.1591 558.223 31.6667 558.223 32.2955C558.223 32.8674 558.054 33.3693 557.717 33.8011C557.384 34.233 556.926 34.5701 556.342 34.8125C555.763 35.0511 555.094 35.1705 554.337 35.1705C553.181 35.1705 552.261 34.9299 551.575 34.4489C550.893 33.964 550.494 33.3049 550.376 32.4716L552.757 32.3466C552.829 32.6989 553.003 32.9678 553.28 33.1534C553.556 33.3352 553.911 33.4261 554.342 33.4261C554.767 33.4261 555.107 33.3447 555.365 33.1818C555.626 33.0152 555.759 32.8011 555.763 32.5398C555.759 32.3201 555.666 32.1402 555.484 32C555.303 31.8561 555.022 31.7462 554.643 31.6705L553.132 31.3693C552.28 31.1989 551.645 30.9034 551.229 30.483C550.816 30.0625 550.609 29.5265 550.609 28.875C550.609 28.3144 550.761 27.8314 551.064 27.4261C551.371 27.0208 551.801 26.7083 552.354 26.4886C552.911 26.2689 553.562 26.1591 554.308 26.1591C555.411 26.1591 556.278 26.392 556.911 26.858C557.547 27.3239 557.918 27.9583 558.024 28.7614ZM563.69 35.1705C562.796 35.1705 562.027 34.9811 561.384 34.6023C560.743 34.2197 560.251 33.6894 559.906 33.0114C559.565 32.3333 559.395 31.553 559.395 30.6705C559.395 29.7765 559.567 28.9924 559.912 28.3182C560.26 27.6402 560.755 27.1117 561.395 26.733C562.035 26.3504 562.796 26.1591 563.679 26.1591C564.44 26.1591 565.107 26.2973 565.679 26.5739C566.251 26.8504 566.704 27.2386 567.037 27.7386C567.37 28.2386 567.554 28.8258 567.588 29.5H565.304C565.24 29.0644 565.069 28.714 564.793 28.4489C564.52 28.1799 564.162 28.0455 563.719 28.0455C563.344 28.0455 563.016 28.1477 562.736 28.3523C562.459 28.553 562.243 28.8466 562.088 29.233C561.933 29.6193 561.855 30.0871 561.855 30.6364C561.855 31.1932 561.931 31.6667 562.082 32.0568C562.238 32.447 562.455 32.7443 562.736 32.9489C563.016 33.1534 563.344 33.2557 563.719 33.2557C563.995 33.2557 564.243 33.1989 564.463 33.0852C564.687 32.9716 564.87 32.8068 565.014 32.5909C565.162 32.3712 565.259 32.108 565.304 31.8011H567.588C567.55 32.4678 567.368 33.0549 567.043 33.5625C566.721 34.0663 566.276 34.4602 565.707 34.7443C565.139 35.0284 564.467 35.1705 563.69 35.1705ZM569.138 35V26.2727H571.484V27.7955H571.575C571.734 27.2538 572.001 26.8447 572.376 26.5682C572.751 26.2879 573.183 26.1477 573.672 26.1477C573.793 26.1477 573.924 26.1553 574.064 26.1705C574.204 26.1856 574.327 26.2064 574.433 26.233V28.3807C574.32 28.3466 574.162 28.3163 573.962 28.2898C573.761 28.2633 573.577 28.25 573.411 28.25C573.054 28.25 572.736 28.3277 572.456 28.483C572.179 28.6345 571.96 28.8466 571.797 29.1193C571.638 29.392 571.558 29.7064 571.558 30.0625V35H569.138ZM575.685 35V26.2727H578.105V35H575.685ZM576.901 25.1477C576.541 25.1477 576.232 25.0284 575.974 24.7898C575.721 24.5473 575.594 24.2576 575.594 23.9205C575.594 23.5871 575.721 23.3011 575.974 23.0625C576.232 22.8201 576.541 22.6989 576.901 22.6989C577.26 22.6989 577.567 22.8201 577.821 23.0625C578.079 23.3011 578.207 23.5871 578.207 23.9205C578.207 24.2576 578.079 24.5473 577.821 24.7898C577.567 25.0284 577.26 25.1477 576.901 25.1477ZM580.089 35V23.3636H582.51V27.7386H582.584C582.69 27.5038 582.843 27.2652 583.044 27.0227C583.249 26.7765 583.514 26.572 583.839 26.4091C584.169 26.2424 584.578 26.1591 585.067 26.1591C585.703 26.1591 586.29 26.3258 586.828 26.6591C587.366 26.9886 587.796 27.4867 588.118 28.1534C588.44 28.8163 588.601 29.6477 588.601 30.6477C588.601 31.6212 588.444 32.4432 588.129 33.1136C587.819 33.7803 587.394 34.286 586.857 34.6307C586.322 34.9716 585.724 35.142 585.061 35.142C584.591 35.142 584.192 35.0644 583.862 34.9091C583.536 34.7538 583.269 34.5587 583.061 34.3239C582.853 34.0852 582.694 33.8447 582.584 33.6023H582.476V35H580.089ZM582.459 30.6364C582.459 31.1553 582.531 31.608 582.675 31.9943C582.819 32.3807 583.027 32.6818 583.3 32.8977C583.572 33.1098 583.904 33.2159 584.294 33.2159C584.688 33.2159 585.021 33.108 585.294 32.892C585.567 32.6723 585.773 32.3693 585.913 31.983C586.057 31.5928 586.129 31.1439 586.129 30.6364C586.129 30.1326 586.059 29.6894 585.919 29.3068C585.779 28.9242 585.572 28.625 585.3 28.4091C585.027 28.1932 584.692 28.0852 584.294 28.0852C583.9 28.0852 583.567 28.1894 583.294 28.3977C583.025 28.6061 582.819 28.9015 582.675 29.2841C582.531 29.6667 582.459 30.1174 582.459 30.6364ZM594.193 35.1705C593.295 35.1705 592.523 34.9886 591.875 34.625C591.231 34.2576 590.735 33.7386 590.386 33.0682C590.038 32.3939 589.864 31.5966 589.864 30.6761C589.864 29.7784 590.038 28.9905 590.386 28.3125C590.735 27.6345 591.225 27.1061 591.858 26.7273C592.494 26.3485 593.241 26.1591 594.097 26.1591C594.672 26.1591 595.208 26.2519 595.705 26.4375C596.205 26.6193 596.64 26.8939 597.011 27.2614C597.386 27.6288 597.678 28.0909 597.886 28.6477C598.095 29.2008 598.199 29.8485 598.199 30.5909V31.2557H590.83V29.7557H595.92C595.92 29.4072 595.845 29.0985 595.693 28.8295C595.542 28.5606 595.331 28.3504 595.062 28.1989C594.797 28.0436 594.489 27.9659 594.136 27.9659C593.769 27.9659 593.443 28.0511 593.159 28.2216C592.879 28.3883 592.659 28.6136 592.5 28.8977C592.341 29.178 592.259 29.4905 592.256 29.8352V31.2614C592.256 31.6932 592.335 32.0663 592.494 32.3807C592.657 32.6951 592.886 32.9375 593.182 33.108C593.477 33.2784 593.828 33.3636 594.233 33.3636C594.502 33.3636 594.748 33.3258 594.972 33.25C595.195 33.1742 595.386 33.0606 595.545 32.9091C595.705 32.7576 595.826 32.572 595.909 32.3523L598.148 32.5C598.034 33.0379 597.801 33.5076 597.449 33.9091C597.1 34.3068 596.65 34.6174 596.097 34.8409C595.547 35.0606 594.913 35.1705 594.193 35.1705Z"
            fill="white"
          />
          <path
            opacity="0.5"
            d="M1.88991 35V21.9091H9.79048V23.3153H3.47514V27.7386H9.38139V29.1449H3.47514V33.5938H9.89276V35H1.88991ZM13.9517 29.0938V35H12.4432V25.1818H13.9006V26.7159H14.0284C14.2585 26.2173 14.608 25.8168 15.0767 25.5142C15.5455 25.2074 16.1506 25.054 16.892 25.054C17.5568 25.054 18.1385 25.1903 18.6371 25.4631C19.1357 25.7315 19.5234 26.1406 19.8004 26.6903C20.0774 27.2358 20.2159 27.9261 20.2159 28.7614V35H18.7074V28.8636C18.7074 28.0923 18.5071 27.4915 18.1065 27.0611C17.706 26.6264 17.1563 26.4091 16.4574 26.4091C15.9759 26.4091 15.5455 26.5135 15.1662 26.7223C14.7912 26.9311 14.495 27.2358 14.2777 27.6364C14.0604 28.0369 13.9517 28.5227 13.9517 29.0938ZM27.2424 25.1818V26.4602H22.1543V25.1818H27.2424ZM23.6373 22.8295H25.1458V32.1875C25.1458 32.6136 25.2076 32.9332 25.3311 33.1463C25.459 33.3551 25.6209 33.4957 25.8169 33.5682C26.0172 33.6364 26.2282 33.6705 26.4498 33.6705C26.6159 33.6705 26.7523 33.6619 26.8588 33.6449C26.9654 33.6236 27.0506 33.6065 27.1145 33.5938L27.4213 34.9489C27.3191 34.9872 27.1763 35.0256 26.9931 35.0639C26.8098 35.1065 26.5776 35.1278 26.2963 35.1278C25.8702 35.1278 25.4526 35.0362 25.0435 34.853C24.6387 34.6697 24.302 34.3906 24.0336 34.0156C23.7694 33.6406 23.6373 33.1676 23.6373 32.5966V22.8295ZM33.5226 35.2045C32.5765 35.2045 31.7605 34.9957 31.0744 34.5781C30.3926 34.1562 29.8663 33.5682 29.4956 32.8139C29.1291 32.0554 28.9458 31.1733 28.9458 30.1676C28.9458 29.1619 29.1291 28.2756 29.4956 27.5085C29.8663 26.7372 30.3819 26.1364 31.0424 25.706C31.7072 25.2713 32.4828 25.054 33.3691 25.054C33.8805 25.054 34.3855 25.1392 34.8841 25.3097C35.3826 25.4801 35.8365 25.7571 36.2456 26.1406C36.6547 26.5199 36.9806 27.0227 37.2235 27.6491C37.4664 28.2756 37.5879 29.0469 37.5879 29.9631V30.6023H30.0197V29.2983H36.0538C36.0538 28.7443 35.943 28.25 35.7214 27.8153C35.5041 27.3807 35.193 27.0376 34.7882 26.7862C34.3876 26.5348 33.9146 26.4091 33.3691 26.4091C32.7683 26.4091 32.2484 26.5582 31.8095 26.8565C31.3748 27.1506 31.0403 27.5341 30.8059 28.0071C30.5716 28.4801 30.4544 28.9872 30.4544 29.5284V30.3977C30.4544 31.1392 30.5822 31.7678 30.8379 32.2834C31.0978 32.7947 31.4579 33.1847 31.9181 33.4531C32.3784 33.7173 32.9132 33.8494 33.5226 33.8494C33.9189 33.8494 34.2768 33.794 34.5964 33.6832C34.9203 33.5682 35.1994 33.3977 35.4338 33.1719C35.6681 32.9418 35.8493 32.6562 35.9771 32.3153L37.4345 32.7244C37.2811 33.2188 37.0233 33.6534 36.661 34.0284C36.2988 34.3991 35.8514 34.6889 35.3187 34.8977C34.786 35.1023 34.1873 35.2045 33.5226 35.2045ZM39.8826 35V25.1818H41.34V26.6648H41.4423C41.6213 26.179 41.9451 25.7848 42.4139 25.4822C42.8826 25.1797 43.411 25.0284 43.9991 25.0284C44.1099 25.0284 44.2484 25.0305 44.4146 25.0348C44.5808 25.0391 44.7065 25.0455 44.7917 25.054V26.5881C44.7406 26.5753 44.6234 26.5561 44.4402 26.5305C44.2612 26.5007 44.0716 26.4858 43.8713 26.4858C43.394 26.4858 42.9679 26.5859 42.5929 26.7862C42.2221 26.9822 41.9281 27.255 41.7108 27.6044C41.4977 27.9496 41.3912 28.3437 41.3912 28.7869V35H39.8826ZM52.614 38.6818C52.3583 38.6818 52.1303 38.6605 51.93 38.6179C51.7298 38.5795 51.5913 38.5412 51.5146 38.5028L51.8981 37.1733C52.2646 37.267 52.5884 37.3011 52.8697 37.2756C53.1509 37.25 53.4002 37.1243 53.6175 36.8984C53.8391 36.6768 54.0415 36.3168 54.2248 35.8182L54.506 35.0511L50.8754 25.1818H52.5117L55.2219 33.0057H55.3242L58.0344 25.1818H59.6708L55.5032 36.4318C55.3157 36.9389 55.0835 37.3587 54.8065 37.6911C54.5295 38.0277 54.2077 38.277 53.8413 38.4389C53.479 38.6009 53.07 38.6818 52.614 38.6818ZM65.299 35.2045C64.4126 35.2045 63.6349 34.9936 62.9659 34.5717C62.3011 34.1499 61.7812 33.5597 61.4062 32.8011C61.0355 32.0426 60.8501 31.1562 60.8501 30.142C60.8501 29.1193 61.0355 28.2266 61.4062 27.4638C61.7812 26.701 62.3011 26.1087 62.9659 25.6868C63.6349 25.2649 64.4126 25.054 65.299 25.054C66.1854 25.054 66.9609 25.2649 67.6257 25.6868C68.2947 26.1087 68.8146 26.701 69.1854 27.4638C69.5604 28.2266 69.7479 29.1193 69.7479 30.142C69.7479 31.1562 69.5604 32.0426 69.1854 32.8011C68.8146 33.5597 68.2947 34.1499 67.6257 34.5717C66.9609 34.9936 66.1854 35.2045 65.299 35.2045ZM65.299 33.8494C65.9723 33.8494 66.5263 33.6768 66.9609 33.3317C67.3956 32.9865 67.7173 32.5327 67.9261 31.9702C68.1349 31.4077 68.2393 30.7983 68.2393 30.142C68.2393 29.4858 68.1349 28.8743 67.9261 28.3075C67.7173 27.7408 67.3956 27.2827 66.9609 26.9332C66.5263 26.5838 65.9723 26.4091 65.299 26.4091C64.6257 26.4091 64.0717 26.5838 63.6371 26.9332C63.2024 27.2827 62.8807 27.7408 62.6719 28.3075C62.4631 28.8743 62.3587 29.4858 62.3587 30.142C62.3587 30.7983 62.4631 31.4077 62.6719 31.9702C62.8807 32.5327 63.2024 32.9865 63.6371 33.3317C64.0717 33.6768 64.6257 33.8494 65.299 33.8494ZM78.2381 30.9858V25.1818H79.7466V35H78.2381V33.3381H78.1358C77.9057 33.8366 77.5478 34.2607 77.062 34.6101C76.5762 34.9553 75.9625 35.1278 75.2211 35.1278C74.6074 35.1278 74.062 34.9936 73.5847 34.7251C73.1074 34.4524 72.7324 34.0433 72.4597 33.4979C72.187 32.9482 72.0506 32.2557 72.0506 31.4205V25.1818H73.5591V31.3182C73.5591 32.0341 73.7594 32.6051 74.16 33.0312C74.5648 33.4574 75.0804 33.6705 75.7069 33.6705C76.0819 33.6705 76.4632 33.5746 76.851 33.3828C77.2431 33.1911 77.5712 32.897 77.8354 32.5007C78.1039 32.1044 78.2381 31.5994 78.2381 30.9858ZM82.5096 35V25.1818H83.967V26.6648H84.0692C84.2482 26.179 84.5721 25.7848 85.0408 25.4822C85.5096 25.1797 86.038 25.0284 86.6261 25.0284C86.7369 25.0284 86.8754 25.0305 87.0415 25.0348C87.2077 25.0391 87.3335 25.0455 87.4187 25.054V26.5881C87.3675 26.5753 87.2504 26.5561 87.0671 26.5305C86.8881 26.5007 86.6985 26.4858 86.4982 26.4858C86.021 26.4858 85.5948 26.5859 85.2198 26.7862C84.8491 26.9822 84.555 27.255 84.3377 27.6044C84.1246 27.9496 84.0181 28.3437 84.0181 28.7869V35H82.5096ZM98.3858 35.2045C97.4398 35.2045 96.6238 34.9957 95.9377 34.5781C95.2559 34.1562 94.7296 33.5682 94.3588 32.8139C93.9924 32.0554 93.8091 31.1733 93.8091 30.1676C93.8091 29.1619 93.9924 28.2756 94.3588 27.5085C94.7296 26.7372 95.2452 26.1364 95.9057 25.706C96.5705 25.2713 97.3461 25.054 98.2324 25.054C98.7438 25.054 99.2488 25.1392 99.7473 25.3097C100.246 25.4801 100.7 25.7571 101.109 26.1406C101.518 26.5199 101.844 27.0227 102.087 27.6491C102.33 28.2756 102.451 29.0469 102.451 29.9631V30.6023H94.883V29.2983H100.917C100.917 28.7443 100.806 28.25 100.585 27.8153C100.367 27.3807 100.056 27.0376 99.6515 26.7862C99.2509 26.5348 98.7779 26.4091 98.2324 26.4091C97.6316 26.4091 97.1117 26.5582 96.6728 26.8565C96.2381 27.1506 95.9036 27.5341 95.6692 28.0071C95.4348 28.4801 95.3176 28.9872 95.3176 29.5284V30.3977C95.3176 31.1392 95.4455 31.7678 95.7012 32.2834C95.9611 32.7947 96.3212 33.1847 96.7814 33.4531C97.2417 33.7173 97.7765 33.8494 98.3858 33.8494C98.7821 33.8494 99.1401 33.794 99.4597 33.6832C99.7836 33.5682 100.063 33.3977 100.297 33.1719C100.531 32.9418 100.713 32.6562 100.84 32.3153L102.298 32.7244C102.144 33.2188 101.887 33.6534 101.524 34.0284C101.162 34.3991 100.715 34.6889 100.182 34.8977C99.6493 35.1023 99.0506 35.2045 98.3858 35.2045ZM104.746 35V25.1818H106.203V26.7159H106.331C106.536 26.1918 106.866 25.7848 107.322 25.495C107.778 25.201 108.325 25.054 108.965 25.054C109.612 25.054 110.151 25.201 110.582 25.495C111.017 25.7848 111.355 26.1918 111.598 26.7159H111.7C111.952 26.2088 112.329 25.8061 112.832 25.5078C113.335 25.2053 113.938 25.054 114.641 25.054C115.519 25.054 116.237 25.3288 116.795 25.8786C117.353 26.424 117.632 27.2741 117.632 28.429V35H116.124V28.429C116.124 27.7045 115.926 27.1868 115.529 26.8757C115.133 26.5646 114.666 26.4091 114.129 26.4091C113.439 26.4091 112.904 26.6179 112.525 27.0355C112.146 27.4489 111.956 27.973 111.956 28.608V35H110.422V28.2756C110.422 27.7173 110.241 27.2678 109.879 26.9268C109.517 26.5817 109.05 26.4091 108.479 26.4091C108.087 26.4091 107.72 26.5135 107.379 26.7223C107.043 26.9311 106.77 27.2209 106.561 27.5916C106.357 27.9581 106.254 28.3821 106.254 28.8636V35H104.746ZM123.28 35.2301C122.657 35.2301 122.093 35.1129 121.586 34.8786C121.079 34.6399 120.676 34.2969 120.378 33.8494C120.079 33.3977 119.93 32.8523 119.93 32.2131C119.93 31.6506 120.041 31.1946 120.263 30.8452C120.484 30.4915 120.78 30.2145 121.151 30.0142C121.522 29.8139 121.931 29.6648 122.378 29.5668C122.83 29.4645 123.284 29.3835 123.74 29.3239C124.336 29.2472 124.82 29.1896 125.191 29.1513C125.566 29.1087 125.839 29.0384 126.009 28.9403C126.184 28.8423 126.271 28.6719 126.271 28.429V28.3778C126.271 27.7472 126.099 27.2571 125.753 26.9077C125.412 26.5582 124.895 26.3835 124.2 26.3835C123.48 26.3835 122.915 26.5412 122.506 26.8565C122.097 27.1719 121.809 27.5085 121.643 27.8665L120.211 27.3551C120.467 26.7585 120.808 26.294 121.234 25.9616C121.665 25.625 122.133 25.3906 122.64 25.2585C123.152 25.1222 123.655 25.054 124.149 25.054C124.464 25.054 124.827 25.0923 125.236 25.169C125.649 25.2415 126.047 25.3928 126.431 25.6229C126.819 25.853 127.14 26.2003 127.396 26.6648C127.652 27.1293 127.78 27.7514 127.78 28.5312V35H126.271V33.6705H126.194C126.092 33.8835 125.922 34.1115 125.683 34.3544C125.444 34.5973 125.127 34.804 124.731 34.9744C124.334 35.1449 123.851 35.2301 123.28 35.2301ZM123.51 33.875C124.106 33.875 124.609 33.7578 125.018 33.5234C125.432 33.2891 125.743 32.9865 125.952 32.6158C126.165 32.245 126.271 31.8551 126.271 31.446V30.0653C126.207 30.142 126.067 30.2124 125.849 30.2763C125.636 30.3359 125.389 30.3892 125.108 30.4361C124.831 30.4787 124.56 30.517 124.296 30.5511C124.036 30.581 123.825 30.6065 123.663 30.6278C123.271 30.679 122.905 30.7621 122.564 30.8771C122.227 30.9879 121.954 31.1562 121.746 31.3821C121.541 31.6037 121.439 31.9062 121.439 32.2898C121.439 32.8139 121.633 33.2102 122.02 33.4787C122.412 33.7429 122.909 33.875 123.51 33.875ZM130.533 35V25.1818H132.042V35H130.533ZM131.3 23.5455C131.006 23.5455 130.752 23.4453 130.539 23.245C130.331 23.0447 130.226 22.804 130.226 22.5227C130.226 22.2415 130.331 22.0007 130.539 21.8004C130.752 21.6001 131.006 21.5 131.3 21.5C131.594 21.5 131.846 21.6001 132.054 21.8004C132.267 22.0007 132.374 22.2415 132.374 22.5227C132.374 22.804 132.267 23.0447 132.054 23.245C131.846 23.4453 131.594 23.5455 131.3 23.5455ZM136.313 21.9091V35H134.805V21.9091H136.313Z"
            fill="#101A24"
          />
        </svg>